#!OML:ASF G:\JayActor3\Patient Classification 1\Patient 1\Session 6\male.ASF
:FULLY-SPECIFIED
:DEGREES
3696
root -4.18847 16.3031 -1.98133 363.105 -55.8218 -368.04
lowerback 1.69862 3.33463 2.47696
upperback -1.56532 4.45735 -2.47288
thorax -2.1748 2.1627 -4.07777
lowerneck 9.99736 8.78049 2.43937
upperneck -4.94708 12.8951 10.9969
head -3.70268 5.78173 2.12578
rclavicle 1.08835e-013 3.18055e-015
rhumerus -27.2064 47.2463 -108.768
rradius 91.5088
rwrist 16.9532
rhand -57.0745 16.3269
rfingers 7.12502
rthumb -29.3626 -11.3739
lclavicle 1.08835e-013 3.18055e-015
lhumerus -33.5741 -16.5049 83.6967
lradius 102.614
lwrist 5.98719
lhand -48.1355 -11.3178
lfingers 7.12502
lthumb -20.7986 17.5875
rfemur -7.86141 -9.83066 32.9968
rtibia 32.6318
rfoot -29.1767 -19.3037
rtoes 8.3276
lfemur -5.81239 0.344155 -4.86214
ltibia 36.83
lfoot -18.5642 -1.2673
ltoes -6.07827
3697
root -4.18345 16.307 -1.97438 362.993 -55.7615 -367.919
lowerback 1.6595 3.34033 2.47581
upperback -1.56539 4.46506 -2.44603
thorax -2.15441 2.16727 -4.04687
lowerneck 9.94294 8.79706 2.43611
upperneck -4.82378 12.9149 11.1967
head -3.67196 5.78957 2.1885
rclavicle 1.3249e-013 2.54444e-014
rhumerus -27.1293 47.1774 -108.699
rradius 91.5614
rwrist 16.9305
rhand -57.1053 16.2779
rfingers 7.12502
rthumb -29.392 -11.4178
lclavicle 1.3249e-013 2.54444e-014
lhumerus -33.666 -16.6052 83.8355
lradius 102.732
lwrist 5.92706
lhand -48.1335 -11.3598
lfingers 7.12502
lthumb -20.7966 17.5457
rfemur -7.85084 -9.84581 32.8968
rtibia 32.622
rfoot -29.1651 -19.3872
rtoes 8.20242
lfemur -5.48946 0.256833 -4.83005
ltibia 36.5877
lfoot -18.4153 -1.04632
ltoes -6.04828
3698
root -4.17847 16.311 -1.96697 362.875 -55.7072 -367.794
lowerback 1.61612 3.34508 2.46972
upperback -1.56296 4.47131 -2.41698
thorax -2.12974 2.17133 -4.01052
lowerneck 9.89304 8.81166 2.42934
upperneck -4.70773 12.9318 11.39
head -3.64388 5.79601 2.24965
rclavicle 1.13307e-014 1.90833e-014
rhumerus -27.0474 47.1133 -108.623
rradius 91.6079
rwrist 16.9219
rhand -57.1294 16.2451
rfingers 7.12502
rthumb -29.415 -11.4465
lclavicle 1.13307e-014 1.90833e-014
lhumerus -33.7642 -16.7001 83.9838
lradius 102.84
lwrist 5.85904
lhand -48.1382 -11.3997
lfingers 7.12502
lthumb -20.8012 17.5053
rfemur -7.83485 -9.82281 32.7982
rtibia 32.6113
rfoot -29.1696 -19.4922
rtoes 8.10814
lfemur -5.16557 0.159877 -4.80527
ltibia 36.3307
lfoot -18.2478 -0.842508
ltoes -5.94877
3699
root -4.1736 16.315 -1.95911 362.755 -55.6555 -367.668
lowerback 1.56772 3.34568 2.45944
upperback -1.55679 4.47195 -2.38405
thorax -2.09949 2.17284 -3.96718
lowerneck 9.84646 8.82582 2.42321
upperneck -4.59724 12.9478 11.573
head -3.61725 5.80225 2.30746
rclavicle 1.06847e-013 -2.22639e-014
rhumerus -26.9592 47.0587 -108.542
rradius 91.6473
rwrist 16.9205
rhand -57.147 16.2189
rfingers 7.12502
rthumb -29.4318 -11.4697
lclavicle 1.06847e-013 -2.22639e-014
lhumerus -33.8664 -16.7836 84.1393
lradius 102.938
lwrist 5.78837
lhand -48.131 -11.4445
lfingers 7.12502
lthumb -20.7942 17.4613
rfemur -7.81395 -9.76713 32.7021
rtibia 32.5992
rfoot -29.1921 -19.6088
rtoes 8.06016
lfemur -4.84724 0.0611345 -4.78467
ltibia 36.0642
lfoot -18.0554 -0.667513
ltoes -5.81375
3700
root -4.16877 16.319 -1.95086 362.633 -55.6005 -367.542
lowerback 1.51495 3.34006 2.44672
upperback -1.5465 4.46425 -2.34722
thorax -2.06374 2.17043 -3.91785
lowerneck 9.80116 8.84099 2.4202
upperneck -4.48724 12.9642 11.7421
head -3.58982 5.80939 2.36067
rclavicle 8.15017e-014 4.77083e-014
rhumerus -26.8688 47.015 -108.46
rradius 91.6803
rwrist 16.9185
rhand -57.1593 16.2165
rfingers 7.12502
rthumb -29.4436 -11.4701
lclavicle 8.15017e-014 4.77083e-014
lhumerus -33.9713 -16.857 84.3021
lradius 103.028
lwrist 5.71571
lhand -48.1287 -11.4949
lfingers 7.12502
lthumb -20.7921 17.4111
rfemur -7.79002 -9.69054 32.6077
rtibia 32.5869
rfoot -29.2289 -19.7283
rtoes 8.05712
lfemur -4.53706 -0.0446472 -4.76695
ltibia 35.7931
lfoot -17.8295 -0.541393
ltoes -5.59582
3701
root -4.16396 16.323 -1.94228 362.524 -55.5397 -367.431
lowerback 1.45667 3.33084 2.44234
upperback -1.53605 4.45192 -2.3089
thorax -2.02461 2.16563 -3.87118
lowerneck 9.75908 8.85282 2.43248
upperneck -4.37189 12.9757 11.8954
head -3.55901 5.81497 2.4074
rclavicle -4.57205e-015 7.95139e-015
rhumerus -26.7814 46.9715 -108.381
rradius 91.7116
rwrist 16.9094
rhand -57.1614 16.2253
rfingers 7.12502
rthumb -29.4455 -11.4609
lclavicle -4.57205e-015 7.95139e-015
lhumerus -34.08 -16.9358 84.4697
lradius 103.107
lwrist 5.64549
lhand -48.1279 -11.5408
lfingers 7.12502
lthumb -20.7913 17.3652
rfemur -7.76772 -9.60446 32.5228
rtibia 32.5748
rfoot -29.2683 -19.852
rtoes 8.0549
lfemur -4.2451 -0.155798 -4.7443
ltibia 35.5222
lfoot -17.557 -0.467031
ltoes -5.31543
3702
root -4.15913 16.3269 -1.93338 362.429 -55.4752 -367.332
lowerback 1.39201 3.31751 2.44707
upperback -1.52579 4.43422 -2.26943
thorax -1.98195 2.1581 -3.82792
lowerneck 9.71133 8.86417 2.45266
upperneck -4.24333 12.9842 12.0374
head -3.52177 5.82065 2.45042
rclavicle 7.06679e-014 -1.43125e-014
rhumerus -26.6999 46.9326 -108.312
rradius 91.7413
rwrist 16.8854
rhand -57.1575 16.2269
rfingers 7.12502
rthumb -29.4418 -11.46
lclavicle 7.06679e-014 -1.43125e-014
lhumerus -34.1936 -17.018 84.6383
lradius 103.179
lwrist 5.58539
lhand -48.1254 -11.602
lfingers 7.12502
lthumb -20.7889 17.3043
rfemur -7.75054 -9.51233 32.4462
rtibia 32.5647
rfoot -29.3112 -19.9735
rtoes 8.07029
lfemur -3.97913 -0.250221 -4.71905
ltibia 35.2534
lfoot -17.2205 -0.416805
ltoes -5.18616
3703
root -4.15425 16.3306 -1.92428 362.35 -55.4093 -367.251
lowerback 1.32341 3.30475 2.46404
upperback -1.51565 4.41755 -2.2284
thorax -1.93631 2.15096 -3.7897
lowerneck 9.65585 8.87288 2.47464
upperneck -4.10309 12.9864 12.1731
head -3.47884 5.82474 2.49238
rclavicle -2.90226e-014 -1.59028e-014
rhumerus -26.623 46.8854 -108.25
rradius 91.7663
rwrist 16.8529
rhand -57.1463 16.2394
rfingers 7.12502
rthumb -29.4311 -11.4493
lclavicle -2.90226e-014 -1.59028e-014
lhumerus -34.3095 -17.1148 84.8141
lradius 103.241
lwrist 5.53289
lhand -48.1271 -11.6609
lfingers 7.12502
lthumb -20.7906 17.2453
rfemur -7.73864 -9.41134 32.3819
rtibia 32.5587
rfoot -29.3611 -20.0959
rtoes 8.10771
lfemur -3.73724 -0.330465 -4.68861
ltibia 34.9864
lfoot -16.8123 -0.397134
ltoes -5.19809
3704
root -4.14922 16.3346 -1.91491 362.262 -55.3499 -367.156
lowerback 1.25014 3.29491 2.47325
upperback -1.50641 4.40438 -2.18786
thorax -1.88922 2.14568 -3.74749
lowerneck 9.59487 8.87929 2.49533
upperneck -3.95195 12.9826 12.2993
head -3.43078 5.8274 2.53271
rclavicle 1.17681e-013 1.11319e-014
rhumerus -26.5525 46.8379 -108.187
rradius 91.793
rwrist 16.8005
rhand -57.1308 16.2525
rfingers 7.12502
rthumb -29.4163 -11.4389
lclavicle 1.17681e-013 1.11319e-014
lhumerus -34.4317 -17.2228 85.0004
lradius 103.298
lwrist 5.48632
lhand -48.1236 -11.7294
lfingers 7.12502
lthumb -20.7872 17.1771
rfemur -7.73375 -9.2946 32.31
rtibia 32.56
rfoot -29.4174 -20.2205
rtoes 8.16164
lfemur -3.51428 -0.39873 -4.67484
ltibia 34.7176
lfoot -16.3631 -0.406385
ltoes -5.39229
3705
root -4.14401 16.3386 -1.90537 362.169 -55.3018 -367.051
lowerback 1.1754 3.28847 2.47487
upperback -1.49847 4.39546 -2.14802
thorax -1.84279 2.14257 -3.70186
lowerneck 9.52021 8.88687 2.48079
upperneck -3.59866 12.9468 12.1778
head -3.63176 5.85312 2.81197
rclavicle 6.60959e-014 2.22639e-014
rhumerus -26.4866 46.7906 -108.127
rradius 91.8196
rwrist 16.7342
rhand -57.1139 16.2373
rfingers 7.12502
rthumb -29.4003 -11.4569
lclavicle 6.60959e-014 2.22639e-014
lhumerus -34.5601 -17.3383 85.1919
lradius 103.348
lwrist 5.43682
lhand -48.1139 -11.8035
lfingers 7.12502
lthumb -20.7779 17.104
rfemur -7.73603 -9.15475 32.2346
rtibia 32.5717
rfoot -29.485 -20.3519
rtoes 8.24052
lfemur -3.30349 -0.453758 -4.67426
ltibia 34.443
lfoot -15.9142 -0.469085
ltoes -5.75917
3706
root -4.13847 16.3427 -1.89552 362.062 -55.2617 -366.926
lowerback 1.0994 3.28328 2.4634
upperback -1.49301 4.38777 -2.11009
thorax -1.79891 2.14013 -3.65096
lowerneck 9.45477 8.89111 2.51619
upperneck -3.44282 12.9376 12.2726
head -3.56972 5.85496 2.84336
rclavicle -4.57205e-015 9.54166e-015
rhumerus -26.4284 46.7459 -108.072
rradius 91.8477
rwrist 16.6579
rhand -57.1018 16.2049
rfingers 7.12502
rthumb -29.3886 -11.4914
lclavicle -4.57205e-015 9.54166e-015
lhumerus -34.6979 -17.4594 85.3893
lradius 103.391
lwrist 5.37671
lhand -48.1048 -11.8753
lfingers 7.12502
lthumb -20.7691 17.0332
rfemur -7.74754 -9.00041 32.1467
rtibia 32.5959
rfoot -29.5631 -20.4841
rtoes 8.33438
lfemur -3.10067 -0.51607 -4.69525
ltibia 34.1589
lfoot -15.5121 -0.61506
ltoes -6.14794
3707
root -4.13249 16.3467 -1.88532 361.939 -55.2271 -366.777
lowerback 1.02334 3.27659 2.43669
upperback -1.49044 4.37766 -2.07404
thorax -1.75913 2.13651 -3.59364
lowerneck 9.39049 8.89601 2.55808
upperneck -3.28501 12.9285 12.3533
head -3.50549 5.85756 2.86878
rclavicle -2.76311e-014 2.06736e-014
rhumerus -26.3778 46.7064 -108.023
rradius 91.8766
rwrist 16.5802
rhand -57.0974 16.1341
rfingers 7.12502
rthumb -29.3845 -11.5629
lclavicle -2.76311e-014 2.06736e-014
lhumerus -34.8454 -17.5795 85.5906
lradius 103.431
lwrist 5.30468
lhand -48.0942 -11.9439
lfingers 7.12502
lthumb -20.7589 16.9657
rfemur -7.7692 -8.84546 32.0425
rtibia 32.6337
rfoot -29.6448 -20.6127
rtoes 8.42419
lfemur -2.90619 -0.585708 -4.73892
ltibia 33.8626
lfoot -15.1882 -0.866781
ltoes -6.52478
3708
root -4.12597 16.3508 -1.87468 361.801 -55.1945 -366.609
lowerback 0.948852 3.26461 2.39762
upperback -1.49009 4.3602 -2.03946
thorax -1.72385 2.12921 -3.53109
lowerneck 9.32706 8.90498 2.60128
upperneck -3.12636 12.9239 12.4249
head -3.44055 5.86295 2.89048
rclavicle 1.86858e-014 0
rhumerus -26.3343 46.6815 -107.982
rradius 91.9076
rwrist 16.5031
rhand -57.1014 16.0649
rfingers 7.12502
rthumb -29.3883 -11.6314
lclavicle 1.86858e-014 0
lhumerus -35.0004 -17.689 85.7905
lradius 103.466
lwrist 5.21698
lhand -48.0821 -12.0056
lfingers 7.12502
lthumb -20.7473 16.9053
rfemur -7.79987 -8.69913 31.9211
rtibia 32.6839
rfoot -29.7279 -20.7318
rtoes 8.51069
lfemur -2.71141 -0.685525 -4.80058
ltibia 33.5538
lfoot -14.9535 -1.28798
ltoes -6.49261
